<?xml version="1.0" encoding="UTF-8"?>
<svg width="500px" height="500px" viewBox="0 0 500 500" version="1.1" xmlns="http://www.w3.org/2000/svg" xmlns:xlink="http://www.w3.org/1999/xlink">
    <title>remembrance</title>
    <g id="Page-1" stroke="none" stroke-width="1" fill="none" fill-rule="evenodd">
        <g id="remembrance">
            <rect id="Rectangle" x="0" y="0" width="500" height="500"></rect>
            <rect id="Rectangle" stroke="#000000" stroke-width="16" stroke-linejoin="round" x="55" y="102" width="390" height="339" rx="16"></rect>
            <line x1="148" y1="67" x2="147.5" y2="140.559524" id="Line" stroke="#000000" stroke-width="20" stroke-linecap="round"></line>
            <line x1="250" y1="67" x2="249.5" y2="140.559524" id="Line-Copy" stroke="#000000" stroke-width="20" stroke-linecap="round"></line>
            <line x1="352" y1="67" x2="351.5" y2="140.559524" id="Line-Copy-2" stroke="#000000" stroke-width="20" stroke-linecap="round"></line>
            <path d="M209.186965,397.67256 C206.425184,394.192471 200.753309,387.053574 196.582798,381.80834 C191.063927,374.867364 189,371.96698 189,371.152568 C189,369.13472 190.70724,361.008924 192.032234,356.720484 C197.01511,340.592732 206.967404,320.569484 220.854083,298.733113 C222.865313,295.57051 224.51087,292.894894 224.51087,292.787297 C224.51087,292.679697 223.178335,290.854141 221.549745,288.730502 C213.114072,277.730869 207.659296,269.499414 202.810221,260.451962 C193.382524,242.861794 190.881375,230.998746 193.822332,217.822067 C197.788151,200.053784 210.59679,185.372002 226.89891,179.908441 C236.868784,176.567091 251.055332,176.056011 262.432971,178.628298 C267.481082,179.76959 275.675237,183.614931 280.235622,186.9827 C283.941992,189.719808 288.725745,194.518192 291.562537,198.344299 C295.31003,203.398661 299.071552,211.733697 300.623377,218.422046 C304.78113,236.341677 297.498157,256.602302 276.130083,286.560469 L271.783246,292.654727 L272.639014,293.765598 C274.521485,296.209125 280.969513,306.074055 285.008108,312.689143 C295.139183,329.283487 302.274939,343.734717 306.552377,356.320199 C307.817265,360.041896 310,369.079448 310,370.595091 C310,371.015707 308.372418,373.523435 306.383152,376.167814 C304.393886,378.812196 299.017935,385.962401 294.436594,392.057155 C289.855254,398.151913 285.958922,403.141909 285.77808,403.146032 C285.597237,403.150035 285.449275,402.785696 285.449275,402.336096 C285.449275,400.988617 284.16308,395.616353 282.793983,391.245077 C281.22883,386.247932 277.574236,377.371903 274.23617,370.460383 C267.556313,356.629639 249.657125,325.915529 248.61841,326.50165 C248.130201,326.777167 241.249773,338.526417 236.664925,346.913943 C224.299514,369.535173 216.684668,388.215097 214.717849,400.752048 L214.208333,404 L209.186965,397.67256 L209.186965,397.67256 Z M251.093775,257.875908 C259.418339,244.960751 265.346604,231.898342 267.996483,220.632359 C268.951459,216.572333 269.326431,207.06423 268.671218,203.524481 C267.432992,196.835215 267.569693,197.105814 264.855743,195.972595 C255.594865,192.105723 242.37837,192.002269 232.104937,195.716234 C228.205351,197.125982 228.260694,197.039579 227.387894,203.082303 C225.316729,217.422034 231.541876,235.465414 246.014143,257.069691 C247.462173,259.231361 248.744434,261 248.863548,261 C248.982662,261 249.986272,259.594159 251.093775,257.875908 Z" id="path2996" fill="#050809" fill-rule="nonzero"></path>
        </g>
    </g>
</svg>